<svg version="1.2" xmlns="http://www.w3.org/2000/svg" viewBox="362.00000000000006 628 160.99999999999994 77" width="161" height="77">
	<style>
		.s0 { fill: #2c5aab } 
		.s1 { fill: #0faebf } 
		.s2 { fill: #67bceb } 
		.s3 { fill: #000000 } 
	</style>
	<g id="Layer 1">
		<path id="&lt;Path&gt;" class="s0" d="m394.7 633.62c0 0 3.81 10.91-0.33 19.51-4.13 8.6-9.01 13.39-10.91 18.27-1.9 4.88-3.84 10.62-0.21 22.53 0 0-8.92-7.65-13.51-16.83-4.59-9.17-2.81-16.99 0.24-22.23 3.06-5.25 8.59-7.49 15.64-12.61 7.06-5.13 9.08-8.64 9.08-8.64z"/>
		<path id="&lt;Path&gt;" class="s0" d="m391.73 664.01c0 0 5.06 13.3 5.44 19.94 0.39 6.82-2.69 13.43-4.79 16.59 0 0-6.65-6.8-6.65-15.26 0.01-8.75 6-21.27 6-21.27z"/>
		<path id="&lt;Path&gt;" class="s1" d="m389.31 642.72c0 0 3.58 6.04-1.32 15.43-4.9 9.39-8.3 15.81-8.5 19.56-0.2 3.75-0.87 6.42 0.99 10.64 0 0-6.69-6.02-9.98-13.77-3.28-7.75 0.59-14.51 0.59-14.51 0 0 2.51-5.95 9.27-10.23 6.76-4.28 8.95-7.12 8.95-7.12z"/>
		<path id="&lt;Path&gt;" class="s1" d="m391.58 671.65c0 0 3.26 9.24 3.26 13.38 0 4.13-0.78 7.3-2.82 11.21 0 0-4.19-5.01-3.97-11.03 0.21-5.64 3.53-13.56 3.53-13.56z"/>
		<path id="&lt;Path&gt;" class="s2" d="m385.13 651.08c0 0-1.92 2.71-7.98 6.7-6.07 3.99-6.55 10.24-5.78 13 0.77 2.75 2.15 6.2 5.62 10.35 0 0-1.22-3.86 1.76-10.76 2.97-6.91 8.55-15.17 6.38-19.29z"/>
		<path id="&lt;Path&gt;" class="s2" d="m391.69 676.03c0 0 1.9 6.24 1.94 9.51 0.04 3.26-1.65 7.4-1.65 7.4 0 0-2.44-2.72-2.44-7.02 0-4.31 2.15-9.89 2.15-9.89z"/>
		<path id="&lt;Compound Path&gt;" class="s3" d="m413.62 641.11h16.42v4.99h-10.32v6.14h9.64v4.94h-9.64v10.8h-6.1z"/>
		<path id="&lt;Compound Path&gt;" class="s3" d="m451.09 641.11v26.87h-6.1v-26.87z"/>
		<path id="&lt;Compound Path&gt;" class="s3" d="m466.91 661.72c1.64 0.84 4.15 1.68 6.74 1.68 2.79 0 4.27-1.16 4.27-2.91 0-1.68-1.28-2.63-4.51-3.79-4.46-1.55-7.37-4.03-7.37-7.93 0-4.59 3.82-8.09 10.16-8.09 3.03 0 5.26 0.63 6.86 1.35l-1.36 4.9c-1.07-0.51-2.99-1.27-5.62-1.27-2.63 0-3.9 1.19-3.9 2.59 0 1.71 1.51 2.47 4.98 3.79 4.74 1.75 6.98 4.22 6.98 8.01 0 4.5-3.47 8.33-10.85 8.33-3.07 0-6.1-0.8-7.61-1.63z"/>
		<path id="&lt;Compound Path&gt;" class="s3" d="m514.59 656.62h-9.88v6.38h11.04v4.98h-17.14v-26.87h16.58v4.99h-10.48v5.58h9.88z"/>
		<path id="&lt;Compound Path&gt;" class="s3" d="m411.7 674.69h4.42v1.34h-2.78v1.66h2.6v1.33h-2.6v2.91h-1.64z"/>
		<path id="&lt;Compound Path&gt;" class="s3" d="m423.99 678.23c0 2.38-1.44 3.82-3.56 3.82-2.15 0-3.4-1.62-3.4-3.69 0-2.17 1.38-3.79 3.52-3.79 2.23 0 3.44 1.66 3.44 3.66zm-5.23 0.1c0 1.42 0.66 2.42 1.76 2.42 1.11 0 1.74-1.05 1.74-2.46 0-1.3-0.62-2.42-1.75-2.42-1.11 0-1.75 1.05-1.75 2.46z"/>
		<path id="&lt;Compound Path&gt;" class="s3" d="m425.07 681.93v-7.24h1.91l1.5 2.65c0.43 0.77 0.86 1.67 1.19 2.49h0.03c-0.11-0.96-0.14-1.94-0.14-3.02v-2.12h1.5v7.24h-1.72l-1.54-2.79c-0.43-0.78-0.91-1.71-1.26-2.56l-0.03 0.01c0.04 0.96 0.06 1.98 0.06 3.16v2.18z"/>
		<path id="&lt;Compound Path&gt;" class="s3" d="m432.48 674.78c0.6-0.09 1.39-0.15 2.22-0.15 1.37 0 2.26 0.25 2.96 0.78 0.76 0.56 1.23 1.45 1.23 2.73 0 1.38-0.51 2.34-1.2 2.93-0.77 0.64-1.93 0.94-3.35 0.94-0.85 0-1.45-0.06-1.86-0.11zm1.65 5.91c0.14 0.04 0.36 0.04 0.57 0.04 1.48 0.01 2.45-0.81 2.45-2.54 0.01-1.51-0.87-2.3-2.28-2.3q-0.54 0-0.74 0.06z"/>
		<path id="&lt;Compound Path&gt;" class="s3" d="m446.6 678.23c0 2.38-1.45 3.82-3.56 3.82-2.15 0-3.41-1.62-3.41-3.69 0-2.17 1.39-3.79 3.53-3.79 2.22 0 3.44 1.66 3.44 3.66zm-5.24 0.1c0 1.42 0.67 2.42 1.76 2.42 1.11 0 1.74-1.05 1.74-2.46 0-1.3-0.62-2.42-1.75-2.42-1.11 0-1.75 1.05-1.75 2.46z"/>
		<path id="&lt;Compound Path&gt;" class="s3" d="m449.53 674.78c0.6-0.09 1.39-0.15 2.22-0.15 1.37 0 2.27 0.25 2.96 0.78 0.76 0.56 1.23 1.45 1.23 2.73 0 1.38-0.51 2.34-1.2 2.93-0.77 0.64-1.93 0.94-3.35 0.94-0.85 0-1.45-0.06-1.86-0.11zm1.65 5.91c0.14 0.04 0.36 0.04 0.57 0.04 1.48 0.01 2.45-0.81 2.45-2.54 0.01-1.51-0.87-2.3-2.28-2.3q-0.54 0-0.74 0.06z"/>
		<path id="&lt;Compound Path&gt;" class="s3" d="m461.32 678.87h-2.66v1.72h2.98v1.34h-4.63v-7.24h4.48v1.34h-2.83v1.51h2.66z"/>
		<path id="&lt;Compound Path&gt;" class="s3" d="m466.26 674.69v7.24h-1.64v-7.24z"/>
		<path id="&lt;Compound Path&gt;" class="s3" d="m467.68 681.93v-7.24h1.91l1.51 2.65c0.43 0.77 0.86 1.67 1.18 2.49h0.03c-0.1-0.96-0.14-1.94-0.14-3.02v-2.12h1.51v7.24h-1.72l-1.55-2.79c-0.43-0.78-0.9-1.71-1.26-2.56l-0.03 0.01c0.04 0.96 0.07 1.98 0.07 3.16v2.18z"/>
		<path id="&lt;Compound Path&gt;" class="s3" d="m480.42 681.73c-0.3 0.15-0.98 0.31-1.86 0.31-2.51 0-3.8-1.56-3.8-3.62 0-2.48 1.77-3.85 3.96-3.85 0.85 0 1.49 0.17 1.78 0.32l-0.33 1.3c-0.33-0.14-0.8-0.27-1.38-0.27-1.3 0-2.31 0.79-2.31 2.4 0 1.45 0.86 2.37 2.33 2.37 0.49 0 1.04-0.11 1.36-0.24z"/>
		<path id="&lt;Compound Path&gt;" class="s3" d="m481.49 674.69h1.65v5.87h2.88v1.37h-4.53z"/>
		<path id="&lt;Compound Path&gt;" class="s3" d="m488.28 674.69v4.17c0 1.25 0.48 1.88 1.32 1.88 0.86 0 1.33-0.6 1.33-1.88v-4.17h1.63v4.06c0 2.24-1.13 3.3-3.02 3.3-1.83 0-2.9-1.01-2.9-3.32v-4.04z"/>
		<path id="&lt;Compound Path&gt;" class="s3" d="m494.03 680.25c0.44 0.22 1.12 0.45 1.82 0.45 0.75 0 1.15-0.32 1.15-0.79 0-0.45-0.34-0.71-1.21-1.02-1.21-0.42-1.99-1.09-1.99-2.14 0-1.24 1.03-2.18 2.74-2.18 0.82 0 1.42 0.17 1.85 0.36l-0.37 1.33c-0.29-0.14-0.8-0.35-1.51-0.35-0.71 0-1.06 0.32-1.06 0.7 0 0.46 0.41 0.67 1.35 1.02 1.28 0.48 1.88 1.14 1.88 2.16 0 1.22-0.94 2.25-2.93 2.25-0.82 0-1.64-0.21-2.05-0.44z"/>
		<path id="&lt;Compound Path&gt;" class="s3" d="m501.43 674.69v7.24h-1.65v-7.24z"/>
		<path id="&lt;Compound Path&gt;" class="s3" d="m509.48 678.23c0 2.38-1.44 3.82-3.56 3.82-2.15 0-3.41-1.62-3.41-3.69 0-2.17 1.39-3.79 3.53-3.79 2.23 0 3.44 1.66 3.44 3.66zm-5.24 0.1c0 1.42 0.67 2.42 1.77 2.42 1.1 0 1.74-1.05 1.74-2.46 0-1.3-0.62-2.42-1.75-2.42-1.11 0-1.76 1.05-1.76 2.46zm3.63-5.36l-1.31 1.32h-1.32l0.91-1.32z"/>
		<path id="&lt;Compound Path&gt;" class="s3" d="m510.55 681.93v-7.24h1.92l1.5 2.65c0.43 0.77 0.86 1.67 1.18 2.49h0.04c-0.11-0.96-0.14-1.94-0.14-3.02v-2.12h1.5v7.24h-1.72l-1.55-2.79c-0.43-0.78-0.9-1.71-1.25-2.56l-0.04 0.01c0.05 0.96 0.07 1.98 0.07 3.16v2.18z"/>
		<path id="&lt;Compound Path&gt;" class="s3" d="m411.75 691.04c0.44 0.23 1.12 0.45 1.82 0.45 0.75 0 1.15-0.31 1.15-0.78 0-0.45-0.35-0.71-1.22-1.02-1.2-0.42-1.99-1.09-1.99-2.14 0-1.24 1.03-2.19 2.74-2.19 0.82 0 1.42 0.18 1.85 0.37l-0.36 1.32c-0.29-0.14-0.81-0.34-1.52-0.34-0.71 0-1.05 0.32-1.05 0.7 0 0.46 0.41 0.66 1.34 1.02 1.28 0.47 1.88 1.14 1.88 2.16 0 1.22-0.93 2.25-2.92 2.25-0.83 0-1.65-0.22-2.05-0.44z"/>
		<path id="&lt;Compound Path&gt;" class="s3" d="m424.43 689.03c0 2.38-1.44 3.82-3.56 3.82-2.15 0-3.4-1.63-3.4-3.69 0-2.17 1.38-3.8 3.52-3.8 2.23 0 3.44 1.67 3.44 3.67zm-5.23 0.1c0 1.42 0.66 2.42 1.76 2.42 1.11 0 1.74-1.06 1.74-2.46 0-1.31-0.62-2.42-1.75-2.42-1.11 0-1.75 1.05-1.75 2.46z"/>
		<path id="&lt;Compound Path&gt;" class="s3" d="m431.13 692.53c-0.3 0.15-0.98 0.31-1.86 0.31-2.51 0-3.8-1.56-3.8-3.63 0-2.47 1.77-3.85 3.96-3.85 0.85 0 1.49 0.18 1.79 0.33l-0.34 1.3c-0.33-0.14-0.79-0.27-1.37-0.27-1.31 0-2.32 0.78-2.32 2.4 0 1.45 0.86 2.36 2.33 2.36 0.49 0 1.04-0.1 1.36-0.23z"/>
		<path id="&lt;Compound Path&gt;" class="s3" d="m434.15 685.48v7.25h-1.65v-7.25z"/>
		<path id="&lt;Compound Path&gt;" class="s3" d="m437.56 690.87l-0.52 1.86h-1.7l2.22-7.25h2.15l2.24 7.25h-1.76l-0.56-1.86zm1.84-1.23l-0.45-1.53c-0.13-0.43-0.26-0.97-0.37-1.4h-0.02c-0.11 0.43-0.22 0.98-0.33 1.4l-0.43 1.53z"/>
		<path id="&lt;Compound Path&gt;" class="s3" d="m443.22 685.48h1.64v5.87h2.88v1.38h-4.52z"/>
		<path id="&lt;Compound Path&gt;" class="s3" d="m458.49 689.67h-2.66v1.72h2.97v1.34h-4.62v-7.25h4.47v1.35h-2.82v1.5h2.66z"/>
		<path id="&lt;Compound Path&gt;" class="s3" d="m460.22 692.73v-7.25h1.91l1.51 2.66c0.43 0.76 0.86 1.67 1.18 2.48h0.03c-0.1-0.95-0.14-1.93-0.14-3.02v-2.12h1.51v7.25h-1.72l-1.55-2.8c-0.43-0.77-0.9-1.7-1.26-2.55l-0.03 0.01c0.04 0.95 0.07 1.97 0.07 3.16v2.18z"/>
		<path id="&lt;Compound Path&gt;" class="s3" d="m472.25 689.67h-2.67v1.72h2.98v1.34h-4.62v-7.25h4.47v1.35h-2.83v1.5h2.67z"/>
		<path id="&lt;Compound Path&gt;" class="s3" d="m473.98 685.58c0.53-0.09 1.31-0.15 2.18-0.15 1.08 0 1.83 0.16 2.34 0.57q0.66 0.52 0.67 1.52c0 0.92-0.65 1.55-1.28 1.78v0.03c0.51 0.21 0.79 0.69 0.97 1.36 0.23 0.81 0.45 1.76 0.59 2.04h-1.68c-0.11-0.2-0.29-0.8-0.5-1.69-0.2-0.9-0.51-1.15-1.17-1.16h-0.5v2.85h-1.62zm1.62 3.12h0.65c0.81 0 1.3-0.41 1.3-1.04 0-0.67-0.45-1-1.21-1.02-0.39 0-0.62 0.04-0.74 0.06z"/>
		<path id="&lt;Compound Path&gt;" class="s3" d="m486.66 692.4c-0.5 0.17-1.46 0.4-2.42 0.4-1.32 0-2.28-0.33-2.94-0.97-0.67-0.63-1.03-1.57-1.02-2.64 0.01-2.41 1.76-3.78 4.14-3.78 0.93 0 1.65 0.18 2.01 0.35l-0.35 1.31c-0.4-0.17-0.89-0.31-1.69-0.31-1.36 0-2.39 0.78-2.39 2.35 0 1.49 0.93 2.37 2.28 2.37 0.37 0 0.67-0.04 0.8-0.1v-1.52h-1.12v-1.28h2.7z"/>
		<path id="&lt;Compound Path&gt;" class="s3" d="m492.55 689.67h-2.66v1.72h2.97v1.34h-4.62v-7.25h4.47v1.35h-2.82v1.5h2.66zm-0.19-5.89l-1.32 1.32h-1.3l0.9-1.32z"/>
		<path id="&lt;Compound Path&gt;" class="s3" d="m495.73 686.86h-1.94v-1.38h5.57v1.38h-1.98v5.87h-1.65z"/>
		<path id="&lt;Compound Path&gt;" class="s3" d="m502.17 685.48v7.25h-1.64v-7.25z"/>
		<path id="&lt;Compound Path&gt;" class="s3" d="m509.21 692.53c-0.3 0.15-0.98 0.31-1.86 0.31-2.5 0-3.79-1.56-3.79-3.63 0-2.47 1.76-3.85 3.95-3.85 0.85 0 1.5 0.18 1.79 0.33l-0.34 1.3c-0.33-0.14-0.79-0.27-1.37-0.27-1.3 0-2.31 0.78-2.31 2.4 0 1.45 0.86 2.36 2.32 2.36 0.49 0 1.04-0.1 1.36-0.23z"/>
		<path id="&lt;Compound Path&gt;" class="s3" d="m516.9 689.03c0 2.38-1.44 3.82-3.56 3.82-2.15 0-3.41-1.63-3.41-3.69 0-2.17 1.39-3.8 3.53-3.8 2.22 0 3.44 1.67 3.44 3.67zm-5.24 0.1c0 1.42 0.67 2.42 1.76 2.42 1.11 0 1.75-1.06 1.75-2.46 0-1.31-0.63-2.42-1.76-2.42-1.1 0-1.75 1.05-1.75 2.46z"/>
	</g>
</svg>